<?xml version="1.0" encoding="utf-8"?>
<!-- Generator: Adobe Illustrator 27.0.0, SVG Export Plug-In . SVG Version: 6.00 Build 0)  -->
<svg version="1.1" id="레이어_1" xmlns="http://www.w3.org/2000/svg" xmlns:xlink="http://www.w3.org/1999/xlink" x="0px"
	 y="0px" viewBox="0 0 1920 1080" style="enable-background:new 0 0 1920 1080;" xml:space="preserve">
<style type="text/css">
	.st0{fill:#DB838E;}
	.st1{fill:#E3E2ED;}
	.st2{fill:#63AA92;}
	.st3{fill:#DDA276;}
	.st4{fill:#C6C0ED;}
	.st5{fill:none;}
	.st6{fill:#DBDBDB;}
	.st7{fill:#FEFEFE;}
	.st8{fill:#61A2EB;stroke:#000000;stroke-miterlimit:10;}
	.st9{fill:#FFE700;stroke:#000000;stroke-miterlimit:10;}
	.st10{fill:#07BA00;stroke:#000000;stroke-miterlimit:10;}
	.st11{fill:#A2599B;stroke:#000000;stroke-miterlimit:10;}
	.st12{fill:#FF5D00;stroke:#000000;stroke-miterlimit:10;}
	.st13{fill:#F9F9F9;}
	.st14{fill:#FFBC5C;stroke:#000000;stroke-miterlimit:10;}
	.st15{fill:#0081D0;stroke:#000000;stroke-miterlimit:10;}
</style>
<g>
	<g>
		<path class="st0" d="M642.3,275.1L545,226l3.2,2.6c-1.1,0.1-2.2,0.2-3.2,0.4l92.9,48.6c5.4,2.8,8.8,8.4,8.8,14.4v2.6v137.8
			c0,1.6-0.6,2.9-1.5,3.9l0,0l0,0c3.1,0.1,6.1-2.3,6.1-5.8V289.6C651.3,283.5,647.8,277.9,642.3,275.1z"/>
		<path class="st1" d="M545.1,259.1l68.9,35.3c5.5,2.8,9,8.4,9,14.4l23.8-14.3v-2.6c0-6-3.4-11.6-8.8-14.4L545,229c0,0,0,0,0,0
			L545.1,259.1z"/>
		<path class="st1" d="M645.2,436.2c0.9-1,1.5-2.3,1.5-3.9V294.6L623,308.8v115.6l19.4,11C643.3,436,644.2,436.2,645.2,436.2
			L645.2,436.2L645.2,436.2z"/>
		<path class="st0" d="M614,294.4l-68.9-35.3l-0.9-0.5L519.7,246l-2.5-1.3v155.1l96.9,54.9c4,2.2,8.9-0.5,8.9-5v-21.1v-4.2V308.8
			C623,302.8,619.5,297.2,614,294.4z"/>
		<g>
			<path class="st2" d="M477.1,291.8l0.4,154.6l96.9,54.9c4,2.2,8.9-0.5,8.9-5V355.4c0-6.1-3.5-11.6-9-14.4L477.1,291.8z"/>
			<g>
				<path class="st1" d="M451.8,311.9l24.5,12.6l0.4-29.9C457.7,299.3,451.8,311.9,451.8,311.9z"/>
				<path class="st1" d="M578.9,357.8c0-6-3.4-11.6-8.8-14.4l-93.4-48.9l-1.8,153.9l80.3,46.1v22.5l20.1-13.5
					c0.8-0.3,1.5-0.8,2.1-1.4l0,0l0,0c0.9-1,1.5-2.3,1.5-3.9L578.9,357.8z"/>
			</g>
			<path class="st2" d="M449.2,310.6v155.1l96.9,54.9c4,2.2,8.9-0.5,8.9-5V374.7c0-6.1-3.5-11.6-9-14.4L449.2,310.6z"/>
			<path class="st2" d="M477.1,291.8c0,0-19.4,4.3-27.9,18.8l2.5,1.3c0,0,10.1-15.9,28.6-17.5L477.1,291.8z"/>
			<path class="st1" d="M453.2,461.3c-0.5,0-0.9-0.4-0.9-0.9V321.1c0-0.5,0.4-0.9,0.9-0.9s0.9,0.4,0.9,0.9v139.4
				C454,461,453.6,461.3,453.2,461.3z"/>
		</g>
		<g>
			<path class="st3" d="M416.1,351l0.4,154.6l96.9,54.9c4,2.2,8.9-0.5,8.9-5V414.6c0-6.1-3.5-11.6-9-14.4L416.1,351z"/>
			<g>
				<path class="st1" d="M390.8,371.1l24.5,12.6l0.4-29.9C396.7,358.5,390.8,371.1,390.8,371.1z"/>
				<path class="st1" d="M517.9,417c0-6-3.4-11.6-8.8-14.4l-93.4-48.9l-1.8,153.9l80.3,46.1v22.5l20.1-13.5c0.8-0.3,1.5-0.8,2.1-1.4
					l0,0l0,0c0.9-1,1.5-2.3,1.5-3.9V417z"/>
			</g>
			<path class="st3" d="M388.2,369.8v155.1l96.9,54.9c4,2.2,8.9-0.5,8.9-5V433.9c0-6.1-3.5-11.6-9-14.4L388.2,369.8z"/>
			<path class="st3" d="M416.1,351c0,0-19.4,4.3-27.9,18.8l2.5,1.3c0,0,10.1-15.9,28.6-17.5L416.1,351z"/>
			<path class="st1" d="M392.2,520.5c-0.5,0-0.9-0.4-0.9-0.9V380.3c0-0.5,0.4-0.9,0.9-0.9s0.9,0.4,0.9,0.9v139.4
				C393,520.1,392.7,520.5,392.2,520.5z"/>
		</g>
		<g>
			<path class="st4" d="M338.9,426l0.4,154.6l96.9,54.9c4,2.2,8.9-0.5,8.9-5V489.6c0-6.1-3.5-11.6-9-14.4L338.9,426z"/>
			<g>
				<path class="st1" d="M313.6,446.1l24.5,12.6l0.4-29.9C319.4,433.5,313.6,446.1,313.6,446.1z"/>
				<path class="st1" d="M440.6,492c0-6-3.4-11.6-8.8-14.4l-93.4-48.9l-1.8,153.9l80.3,46.1v22.5l20.1-13.5c0.8-0.3,1.5-0.8,2.1-1.4
					l0,0l0,0c0.9-1,1.5-2.3,1.5-3.9L440.6,492z"/>
			</g>
			<path class="st4" d="M311,444.8v155.1l96.9,54.9c4,2.2,8.9-0.5,8.9-5V508.9c0-6.1-3.5-11.6-9-14.4L311,444.8z"/>
			<path class="st4" d="M338.9,426c0,0-19.4,4.3-27.9,18.8l2.5,1.3c0,0,10.1-15.9,28.6-17.5L338.9,426z"/>
			<path class="st1" d="M314.9,595.5c-0.5,0-0.9-0.4-0.9-0.9V455.2c0-0.5,0.4-0.9,0.9-0.9s0.9,0.4,0.9,0.9v139.4
				C315.8,595.1,315.4,595.5,314.9,595.5z"/>
		</g>
		<polygon class="st5" points="544.5,229.1 544.2,258.6 519.7,246 519.7,246 544.2,258.6 		"/>
		<path class="st1" d="M544.5,229.1c-16.1,3.2-24.9,17-24.9,17l24.5,12.6L544.5,229.1z"/>
		<path class="st1" d="M623,424.5v4.2v21.1v1.5l20.1-13.5c0.8-0.3,1.5-0.8,2.1-1.4h0c-1,0-1.9-0.3-2.8-0.8L623,424.5z"/>
		<path class="st1" d="M545,229c-0.2,0-0.3,0.1-0.5,0.1l-0.4,29.6l0.9,0.5L545,229z"/>
		<path class="st6" d="M646.7,294.6L623,308.8v115.6v0v4.2v21.1v1.5l20.1-13.5c0.8-0.3,1.5-0.8,2.1-1.4c0,0,0,0,0,0l0,0l0,0
			c0.9-1,1.5-2.3,1.5-3.9V294.6z"/>
		<path class="st6" d="M578.5,360.8L554.8,375v115.6v0v4.2v21.1v1.5l20.1-13.5c0.8-0.3,1.5-0.8,2.1-1.4c0,0,0,0,0,0l0,0l0,0
			c0.9-1,1.5-2.3,1.5-3.9V360.8z"/>
		<path class="st6" d="M517.9,419.6l-23.8,14.3v115.6v0v4.2v21.1v1.5l20.1-13.5c0.8-0.3,1.5-0.8,2.1-1.4c0,0,0,0,0,0l0,0l0,0
			c0.9-1,1.5-2.3,1.5-3.9V419.6z"/>
		<path class="st0" d="M544.5,229.1l0-0.4L544.5,229.1z"/>
		<path class="st0" d="M519.7,246L519.7,246c0,0,5.9-12.6,24.9-17.4l0.5,0.3l0-3c0,0-19.4,4.3-27.9,18.8L519.7,246L519.7,246z"/>
		<path class="st0" d="M545,229c1-0.2,2.1-0.3,3.2-0.4L545,226L545,229L545,229z"/>
		<path class="st0" d="M544.5,229.1l0-0.4c-19,4.8-24.9,17.4-24.9,17.4l0,0C519.7,246,528.4,232.3,544.5,229.1z"/>
		<path class="st0" d="M545,229L545,229l-0.5-0.3l0,0.4C544.7,229,544.8,229,545,229z"/>
		<path class="st0" d="M545,229C545,229,545,229,545,229L545,229L545,229z"/>
		<path class="st0" d="M519.7,246l-2.5-1.3L519.7,246z"/>
	</g>
	<g>
		<path class="st0" d="M1599.5,596.1l-97.3-49.2l3.2,2.6c-1.1,0.1-2.2,0.2-3.2,0.4l92.9,48.6c5.4,2.8,8.8,8.4,8.8,14.4v2.6v137.8
			c0,1.6-0.6,2.9-1.5,3.9l0,0l0,0c3.1,0.1,6.1-2.3,6.1-5.8V610.5C1608.4,604.4,1605,598.9,1599.5,596.1z"/>
		<path class="st1" d="M1502.3,580l68.9,35.3c5.5,2.8,9,8.4,9,14.4l23.8-14.3v-2.6c0-6-3.4-11.6-8.8-14.4l-92.9-48.6c0,0,0,0,0,0
			L1502.3,580z"/>
		<path class="st1" d="M1602.4,757.2c0.9-1,1.5-2.3,1.5-3.9V615.5l-23.8,14.3v115.6l19.4,11C1600.4,756.9,1601.4,757.2,1602.4,757.2
			L1602.4,757.2L1602.4,757.2z"/>
		<path class="st0" d="M1571.2,615.3l-68.9-35.3l-0.9-0.5l-24.5-12.6l-2.5-1.3v155.1l96.9,54.9c4,2.2,8.9-0.5,8.9-5v-21.1v-4.2
			V629.8C1580.1,623.7,1576.7,618.2,1571.2,615.3z"/>
		<g>
			<path class="st2" d="M1434.3,612.8l0.4,154.6l96.9,54.9c4,2.2,8.9-0.5,8.9-5V676.4c0-6.1-3.5-11.6-9-14.4L1434.3,612.8z"/>
			<g>
				<path class="st1" d="M1408.9,632.9l24.5,12.6l0.4-29.9C1414.8,620.3,1408.9,632.9,1408.9,632.9z"/>
				<path class="st1" d="M1536,678.8c0-6-3.4-11.6-8.8-14.4l-93.4-48.9l-1.8,153.9l80.3,46.1V838l20.1-13.5c0.8-0.3,1.5-0.8,2.1-1.4
					l0,0l0,0c0.9-1,1.5-2.3,1.5-3.9L1536,678.8z"/>
			</g>
			<path class="st2" d="M1406.4,631.6v155.1l96.9,54.9c4,2.2,8.9-0.5,8.9-5V695.6c0-6.1-3.5-11.6-9-14.4L1406.4,631.6z"/>
			<path class="st2" d="M1434.3,612.8c0,0-19.4,4.3-27.9,18.8l2.5,1.3c0,0,10.1-15.9,28.6-17.5L1434.3,612.8z"/>
			<path class="st1" d="M1410.3,782.3c-0.5,0-0.9-0.4-0.9-0.9V642c0-0.5,0.4-0.9,0.9-0.9s0.9,0.4,0.9,0.9v139.4
				C1411.2,781.9,1410.8,782.3,1410.3,782.3z"/>
		</g>
		<g>
			<path class="st3" d="M1373.3,672l0.4,154.6l96.9,54.9c4,2.2,8.9-0.5,8.9-5V735.6c0-6.1-3.5-11.6-9-14.4L1373.3,672z"/>
			<g>
				<path class="st1" d="M1348,692.1l24.5,12.6l0.4-29.9C1353.8,679.5,1348,692.1,1348,692.1z"/>
				<path class="st1" d="M1475,737.9c0-6-3.4-11.6-8.8-14.4l-93.4-48.9l-1.8,153.9l80.3,46.1v22.5l20.1-13.5
					c0.8-0.3,1.5-0.8,2.1-1.4l0,0l0,0c0.9-1,1.5-2.3,1.5-3.9V737.9z"/>
			</g>
			<path class="st3" d="M1345.4,690.8v155.1l96.9,54.9c4,2.2,8.9-0.5,8.9-5V754.8c0-6.1-3.5-11.6-9-14.4L1345.4,690.8z"/>
			<path class="st3" d="M1373.3,672c0,0-19.4,4.3-27.9,18.8l2.5,1.3c0,0,10.1-15.9,28.6-17.5L1373.3,672z"/>
			<path class="st1" d="M1349.3,841.5c-0.5,0-0.9-0.4-0.9-0.9V701.2c0-0.5,0.4-0.9,0.9-0.9s0.9,0.4,0.9,0.9v139.4
				C1350.2,841.1,1349.8,841.5,1349.3,841.5z"/>
		</g>
		<g>
			<path class="st4" d="M1296.1,746.9l0.4,154.6l96.9,54.9c4,2.2,8.9-0.5,8.9-5V810.5c0-6.1-3.5-11.6-9-14.4L1296.1,746.9z"/>
			<g>
				<path class="st1" d="M1270.7,767l24.5,12.6l0.4-29.9C1276.6,754.4,1270.7,767,1270.7,767z"/>
				<path class="st1" d="M1397.8,812.9c0-6-3.4-11.6-8.8-14.4l-93.4-48.9l-1.8,153.9l80.3,46.1v22.5l20.1-13.5
					c0.8-0.3,1.5-0.8,2.1-1.4l0,0l0,0c0.9-1,1.5-2.3,1.5-3.9L1397.8,812.9z"/>
			</g>
			<path class="st4" d="M1268.2,765.7v155.1l96.9,54.9c4,2.2,8.9-0.5,8.9-5V829.8c0-6.1-3.5-11.6-9-14.4L1268.2,765.7z"/>
			<path class="st4" d="M1296.1,746.9c0,0-19.4,4.3-27.9,18.8l2.5,1.3c0,0,10.1-15.9,28.6-17.5L1296.1,746.9z"/>
			<path class="st1" d="M1272.1,916.5c-0.5,0-0.9-0.4-0.9-0.9V776.2c0-0.5,0.4-0.9,0.9-0.9s0.9,0.4,0.9,0.9v139.4
				C1273,916.1,1272.6,916.5,1272.1,916.5z"/>
		</g>
		<polygon class="st5" points="1501.7,550 1501.3,579.6 1476.8,567 1476.8,567 1501.3,579.6 		"/>
		<path class="st1" d="M1501.7,550c-16.1,3.2-24.9,17-24.9,17l24.5,12.6L1501.7,550z"/>
		<path class="st1" d="M1580.1,745.4v4.2v21.1v1.5l20.1-13.5c0.8-0.3,1.5-0.8,2.1-1.4h0c-1,0-1.9-0.3-2.8-0.8L1580.1,745.4z"/>
		<path class="st1" d="M1502.2,549.9c-0.2,0-0.3,0.1-0.5,0.1l-0.4,29.6l0.9,0.5L1502.2,549.9z"/>
		<path class="st6" d="M1603.9,615.5l-23.8,14.3v115.6v0v4.2v21.1v1.5l20.1-13.5c0.8-0.3,1.5-0.8,2.1-1.4c0,0,0,0,0,0l0,0l0,0
			c0.9-1,1.5-2.3,1.5-3.9V615.5z"/>
		<path class="st6" d="M1535.7,681.7l-23.8,14.3v115.6v0v4.2v21.1v1.5l20.1-13.5c0.8-0.3,1.5-0.8,2.1-1.4c0,0,0,0,0,0l0,0l0,0
			c0.9-1,1.5-2.3,1.5-3.9V681.7z"/>
		<path class="st6" d="M1475,740.6l-23.8,14.3v115.6v0v4.2v21.1v1.5l20.1-13.5c0.8-0.3,1.5-0.8,2.1-1.4c0,0,0,0,0,0l0,0l0,0
			c0.9-1,1.5-2.3,1.5-3.9V740.6z"/>
		<path class="st0" d="M1501.7,550l0-0.4L1501.7,550z"/>
		<path class="st0" d="M1476.8,567L1476.8,567c0,0,5.9-12.6,24.9-17.4l0.5,0.3l0-3c0,0-19.4,4.3-27.9,18.8L1476.8,567L1476.8,567z"
			/>
		<path class="st0" d="M1502.2,549.9c1-0.2,2.1-0.3,3.2-0.4l-3.2-2.6L1502.2,549.9L1502.2,549.9z"/>
		<path class="st0" d="M1501.7,550l0-0.4c-19,4.8-24.9,17.4-24.9,17.4l0,0C1476.8,567,1485.6,553.2,1501.7,550z"/>
		<path class="st0" d="M1502.2,549.9L1502.2,549.9l-0.5-0.3l0,0.4C1501.9,550,1502,549.9,1502.2,549.9z"/>
		<path class="st0" d="M1502.2,549.9C1502.2,549.9,1502.2,549.9,1502.2,549.9L1502.2,549.9L1502.2,549.9z"/>
		<path class="st0" d="M1476.8,567l-2.5-1.3L1476.8,567z"/>
	</g>
	<g>
		<path class="st7" d="M650.5,371.2"/>
		<g>
			<g>
				<path class="st8" d="M614.6,187.2l-15.8,10.3l-43.2,28.2l18.3,28.1l43.2-28.2l59.2,90.9c7.3,11.2,10.2,21.7,8.7,31.5
					c-1.5,9.7-7.4,17.9-17.6,24.6c-10.3,6.7-20.3,8.8-29.9,6.3c-9.6-2.5-18.1-9.3-25.3-20.5l-31.4,20.5c13.1,20,28.7,32.1,46.9,36.1
					c18.2,4,37.4-0.6,57.5-13.8c19.8-13,31.7-28.6,35.5-47c3.9-18.4-0.8-37.6-13.9-57.7l-77.6-119L614.6,187.2z"/>
				<path class="st8" d="M640.4,417c-4.4,0-8.7-0.5-12.9-1.4c-18.2-4-34.1-16.2-47.1-36.3l-0.2-0.4l32.1-21l0.2,0.4
					c7.2,11,15.6,17.8,25.1,20.3c9.5,2.5,19.4,0.3,29.5-6.3c10.1-6.6,15.9-14.8,17.4-24.3c1.5-9.6-1.4-20.1-8.6-31.2l-59-90.5
					l-43.2,28.2L555,225.7l59.3-38.8l0.2,0.4l-0.2-0.4l15-9.8l0.2,0.4l77.6,119c13.1,20.1,17.8,39.7,13.9,58.1
					c-3.9,18.4-15.9,34.3-35.7,47.3C669.9,411.9,654.8,417,640.4,417z M581.4,379.2c12.9,19.6,28.5,31.6,46.4,35.5
					c18,4,37.2-0.6,57.2-13.7c19.6-12.8,31.5-28.6,35.3-46.7c3.8-18.2-0.8-37.5-13.8-57.4l-77.3-118.7l-72.9,47.7l17.9,27.4
					l43.2-28.2l59.5,91.3c7.4,11.3,10.3,22,8.8,31.8c-1.5,9.8-7.5,18.2-17.8,24.9c-10.4,6.8-20.5,8.9-30.2,6.4
					c-9.6-2.5-18.1-9.3-25.4-20.3L581.4,379.2z"/>
			</g>
			<g>
				<path class="st8" d="M640,170.6l-15.8,10.3L581,209.2l18.3,28.1l43.2-28.2l59.2,90.9c7.3,11.2,10.2,21.7,8.7,31.5
					c-1.5,9.7-7.4,17.9-17.6,24.6c-10.3,6.7-20.3,8.8-29.9,6.3c-9.6-2.5-18.1-9.3-25.3-20.5l-31.4,20.5c13.1,20,28.7,32.1,46.9,36.1
					c18.2,4,37.4-0.6,57.5-13.8c19.8-13,31.7-28.6,35.5-47c3.9-18.4-0.8-37.6-13.9-57.7l-77.6-119L640,170.6z"/>
				<path class="st8" d="M665.8,400.4c-4.4,0-8.7-0.5-12.9-1.4c-18.2-4-34.1-16.2-47.1-36.3l-0.2-0.4l32.1-21l0.2,0.4
					c7.2,11,15.6,17.8,25.1,20.3c9.5,2.5,19.4,0.3,29.5-6.3c10.1-6.6,15.9-14.8,17.4-24.3c1.5-9.6-1.4-20.1-8.6-31.2l-59-90.5
					l-43.2,28.2L580.4,209l59.3-38.8l0.2,0.4l-0.2-0.4l15-9.8l0.2,0.4l77.6,119c13.1,20.1,17.8,39.7,13.9,58.1
					c-3.9,18.4-15.9,34.3-35.7,47.3C695.3,395.3,680.3,400.4,665.8,400.4z M606.8,362.6c12.9,19.6,28.5,31.6,46.4,35.5
					c18,4,37.2-0.6,57.2-13.7c19.6-12.8,31.5-28.6,35.3-46.7c3.8-18.2-0.8-37.5-13.8-57.4l-77.3-118.7l-72.9,47.7l17.9,27.4
					l43.2-28.2l59.5,91.3c7.4,11.3,10.3,22,8.8,31.8c-1.5,9.8-7.5,18.2-17.8,24.9c-10.4,6.8-20.5,8.9-30.2,6.4
					c-9.6-2.5-18.1-9.3-25.4-20.3L606.8,362.6z"/>
			</g>
		</g>
		<g>
			<path class="st9" d="M846.8,432.2c-46.8-4.2-68-30.2-63.7-78.1l13-145.4l36.3,3.3l-13,145.4c-1.1,12.4,0.8,21.9,5.9,28.7
				c5,6.8,13.4,10.7,25.3,11.8c23,2.1,35.6-9.4,37.8-34.3l13-145.4l36.3,3.3l-13,145.4c-2.1,23.9-9.8,41.3-23,52.2
				C888.5,429.9,870.2,434.3,846.8,432.2z"/>
			<path class="st9" d="M857.6,433.1c-3.5,0-7.1-0.2-10.9-0.5c-23.4-2.1-40.7-9.8-51.3-22.8c-10.6-13-15-31.8-12.8-55.7l13-145.8
				l37.2,3.3l0,0.4l-13,145.4c-1.1,12.2,0.8,21.8,5.8,28.4c4.9,6.6,13.3,10.5,25,11.6c22.6,2,35.1-9.4,37.3-33.9l13-145.8l37.2,3.3
				l0,0.4l-13,145.4c-2.1,23.9-9.9,41.6-23.1,52.5C890.8,428.5,876,433.1,857.6,433.1z M846.9,431.8c23.1,2.1,41.5-2.3,54.5-13.1
				c13-10.7,20.7-28.2,22.8-51.9l13-144.9l-35.4-3.2l-13,144.9c-2.2,25.1-15.1,36.8-38.3,34.7c-11.9-1.1-20.5-5.1-25.6-11.9
				c-5.1-6.8-7-16.6-5.9-29l13-144.9l-35.4-3.2l-13,144.9c-2.1,23.7,2.1,42.2,12.6,55.1C806.7,422.1,823.7,429.7,846.9,431.8z"/>
		</g>
		<g>
			<path class="st9" d="M863.7,432.2c-46.8-4.2-68-30.2-63.7-78.1l13-145.4l36.3,3.3l-13,145.4c-1.1,12.4,0.8,21.9,5.9,28.7
				c5,6.8,13.4,10.7,25.3,11.8c23,2.1,35.6-9.4,37.8-34.3l13-145.4l36.3,3.3l-13,145.4c-2.1,23.9-9.8,41.3-23,52.2
				C905.3,429.9,887.1,434.3,863.7,432.2z"/>
			<path class="st9" d="M874.5,433.1c-3.5,0-7.1-0.2-10.9-0.5c-23.4-2.1-40.7-9.8-51.3-22.8c-10.6-13-15-31.8-12.8-55.7l13-145.8
				l37.2,3.3l0,0.4l-13,145.4c-1.1,12.2,0.8,21.8,5.8,28.4c4.9,6.6,13.3,10.5,25,11.6c22.6,2,35.1-9.4,37.3-33.9l13-145.8l37.2,3.3
				l0,0.4l-13,145.4c-2.1,23.9-9.9,41.6-23.1,52.5C907.7,428.5,892.8,433.1,874.5,433.1z M863.7,431.8c23.2,2.1,41.5-2.3,54.5-13.1
				c13-10.7,20.7-28.2,22.8-51.9l13-144.9l-35.4-3.2l-13,144.9c-2.2,25.1-15.1,36.8-38.3,34.7c-11.9-1.1-20.5-5.1-25.6-11.9
				c-5.1-6.8-7-16.6-5.9-29l13-144.9l-35.4-3.2l-13,144.9c-2.1,23.7,2.1,42.2,12.6,55.1C823.5,422.1,840.6,429.7,863.7,431.8z"/>
		</g>
		<g>
			<g>
				<polygon class="st10" points="1163.3,116.7 1159.9,116.4 1141.4,114.7 1114.3,207.3 1113.1,207.2 1112.5,207.1 1111.9,207 
					1101.7,111.1 1083.2,109.5 1079.9,109.2 1049,106.4 1029.8,320.5 1063.9,323.6 1079.8,147.4 1084.1,147.8 1095.7,245.9 
					1104.4,246.6 1113.3,247.5 1123.3,248.4 1152.2,154 1156.5,154.4 1140.7,330.5 1174.9,333.6 1194.1,119.5 				"/>
				<path class="st10" d="M1175.3,334.1l-35-3.2l15.8-176.1l-3.6-0.3l-28.8,94.4l-28.4-2.6l0-0.4l-11.5-97.7l-3.6-0.3L1064.3,324
					l-35-3.2l19.3-215l53.5,4.8l0,0.4l10.2,95.6l1.7,0.2l27.1-92.6l53.5,4.8L1175.3,334.1z M1141.2,330.1l33.3,3l19.2-213.2
					l-51.9-4.7l-27.1,92.6l-3.1-0.3l0-0.4l-10.2-95.6l-51.9-4.7l-19.2,213.2l33.3,3l15.8-176.1l5.2,0.5l0,0.4l11.5,97.7l27,2.4
					l28.8-94.4l5.2,0.5L1141.2,330.1z"/>
			</g>
			<g>
				<polygon class="st10" points="1143,114.9 1139.7,114.6 1121.2,112.9 1094.1,205.4 1092.9,205.3 1092.3,205.3 1091.7,205.2 
					1081.5,109.3 1063,107.6 1059.7,107.3 1028.8,104.5 1009.6,318.7 1043.7,321.7 1059.6,145.6 1063.9,146 1075.4,244 
					1084.2,244.8 1093.1,245.6 1103.1,246.5 1132,152.2 1136.3,152.6 1120.5,328.7 1154.6,331.7 1173.9,117.6 				"/>
				<path class="st10" d="M1155,332.2l-35-3.2l15.8-176.1l-3.6-0.3l-28.8,94.4l-28.4-2.6l0-0.4l-11.5-97.7l-3.6-0.3l-15.8,176.1
					l-35-3.2l19.3-215l53.5,4.8l0,0.4l10.2,95.6l1.7,0.2l27.1-92.6l53.5,4.8L1155,332.2z M1121,328.3l33.3,3l19.2-213.2l-51.9-4.7
					l-27.1,92.6l-3.1-0.3l0-0.4l-10.2-95.6l-51.9-4.7L1010,318.3l33.3,3l15.8-176.1l5.2,0.5l0,0.4l11.5,97.7l27,2.4l28.8-94.4
					l5.2,0.5L1121,328.3z"/>
			</g>
		</g>
		<g>
			<path class="st11" d="M1365.5,260.2c-10.8-15.6-29.2-26.8-55.3-33.5l-27.4-7.1l-2.9-0.8l-32.3-8.3l-53.5,208.2l35.3,9.1
				l15.8-61.6l27.4,7.1c26,6.7,47.7,5.2,65-4.4c17.3-9.7,29.1-26.9,35.5-51.6C1378.8,294.8,1376.3,275.8,1365.5,260.2z M1316.1,338
				c-9.4,5.5-21.1,6.4-35.1,2.8l-27.4-7.1l20.9-81.5l27.4,7.1c14,3.6,24,9.7,29.7,18.3c5.8,8.6,7,19.1,3.8,31.6
				C1331.9,322.9,1325.4,332.5,1316.1,338z"/>
			<path class="st11" d="M1229.7,428.4l-36.1-9.3l0.1-0.4l53.6-208.6l63.1,16.3c26,6.7,44.7,18,55.5,33.7l0,0
				c10.8,15.6,13.4,35,7.6,57.5c-6.4,24.7-18.4,42.2-35.7,51.9c-17.3,9.7-39.3,11.2-65.4,4.5l-26.9-6.9L1229.7,428.4z M1194.6,418.4
				l34.4,8.9l15.8-61.6l27.8,7.2c25.8,6.7,47.6,5.2,64.7-4.4c17.1-9.6,29-26.8,35.3-51.3c5.7-22.2,3.2-41.3-7.5-56.8l0,0
				c-10.7-15.4-29.2-26.7-55-33.3l-62.2-16L1194.6,418.4z M1296.5,343.4c-4.9,0-10.1-0.7-15.7-2.2L1253,334l0.1-0.4l21-81.9
				l27.8,7.2c14.1,3.6,24.2,9.8,30,18.5c5.8,8.6,7.1,19.4,3.9,32c-3.5,13.7-10.1,23.5-19.5,29.1l0,0
				C1310.6,341.7,1304,343.4,1296.5,343.4z M1254.1,333.4l26.9,6.9c13.9,3.6,25.6,2.6,34.8-2.8l0,0c9.2-5.4,15.7-15,19.1-28.5
				c3.2-12.3,1.9-22.8-3.8-31.3c-5.7-8.4-15.6-14.5-29.5-18.1l-26.9-6.9L1254.1,333.4z"/>
		</g>
		<g>
			<path class="st11" d="M1387.3,267.2c-10.8-15.6-29.2-26.8-55.3-33.5l-27.4-7.1l-2.9-0.8l-32.3-8.3l-53.5,208.2l35.3,9.1
				l15.8-61.6l27.4,7.1c26,6.7,47.7,5.2,65-4.4c17.3-9.7,29.1-26.9,35.5-51.6C1400.6,301.9,1398.1,282.8,1387.3,267.2z M1337.8,345
				c-9.4,5.5-21.1,6.4-35.1,2.8l-27.4-7.1l20.9-81.5l27.4,7.1c14,3.6,24,9.7,29.7,18.3c5.8,8.6,7,19.1,3.8,31.6
				C1353.6,329.9,1347.2,339.5,1337.8,345z"/>
			<path class="st11" d="M1251.5,435.4l-36.1-9.3l0.1-0.4l53.6-208.6l63.1,16.3c26,6.7,44.7,18,55.5,33.7l0,0
				c10.8,15.6,13.4,35,7.6,57.5c-6.4,24.7-18.4,42.2-35.7,51.9c-17.3,9.7-39.3,11.2-65.4,4.5l-26.9-6.9L1251.5,435.4z M1216.4,425.5
				l34.4,8.9l15.8-61.6l27.8,7.2c25.8,6.7,47.6,5.2,64.7-4.4c17.1-9.6,29-26.8,35.3-51.3c5.7-22.2,3.2-41.3-7.5-56.8l0,0
				c-10.7-15.4-29.2-26.7-55-33.3l-62.2-16L1216.4,425.5z M1318.3,350.4c-4.9,0-10.1-0.7-15.7-2.2l-27.8-7.2l0.1-0.4l21-81.9
				l27.8,7.2c14.1,3.6,24.2,9.8,30,18.5c5.8,8.6,7.1,19.4,3.9,32c-3.5,13.7-10.1,23.5-19.5,29.1l0,0
				C1332.3,348.7,1325.7,350.4,1318.3,350.4z M1275.9,340.4l26.9,6.9c13.9,3.6,25.6,2.6,34.8-2.8l0,0c9.2-5.4,15.7-15,19.1-28.5
				c3.2-12.3,1.9-22.8-3.8-31.3c-5.7-8.4-15.6-14.5-29.5-18.1l-26.9-6.9L1275.9,340.4z"/>
		</g>
		<g>
			<g>
				<polygon class="st12" points="643.4,645.3 617.6,516.9 591.8,522.1 617.6,650.5 622.4,674.3 648.2,669.1 725.1,653.6 
					720.4,629.8 				"/>
				<path class="st12" d="M622,674.9l-30.7-153.1l26.7-5.4l25.8,128.5l77-15.5l5,24.7L622,674.9z M592.3,522.4l30.4,151.4
					l101.9-20.5l-4.6-22.9l-77,15.5l-25.8-128.5L592.3,522.4z"/>
			</g>
			<g>
				<polygon class="st12" points="627.4,649.3 601.6,520.8 575.8,526 601.6,654.5 606.4,678.3 632.2,673.1 709.1,657.6 704.4,633.8 
									"/>
				<path class="st12" d="M606,678.8l-30.7-153.1l26.7-5.4l25.8,128.5l77-15.5l5,24.7L606,678.8z M576.4,526.4l30.4,151.4
					l101.9-20.5l-4.6-22.9l-77,15.5l-25.8-128.5L576.4,526.4z"/>
			</g>
		</g>
		<g>
			<g>
				<polygon class="st13" points="879.7,566.8 885.4,545.2 815.7,526.8 792.3,520.6 786.6,542.2 777,578.7 771.3,600.3 761.7,637 
					756,658.6 779.3,664.8 849.1,683.2 854.8,661.6 785,643.2 794.7,606.5 847,620.3 852.7,598.7 800.4,584.9 810,548.4 				"/>
				<path d="M849.4,683.8l-0.4-0.1l-93.5-24.7L792,520.1l94,24.8l-5.9,22.4l-69.7-18.4l-9.4,35.7l52.3,13.8l-5.9,22.4L795,607
					l-9.5,35.9l69.7,18.4L849.4,683.8z M756.5,658.3l92.3,24.4l5.5-20.7l-69.7-18.4l9.9-37.6l52.3,13.8l5.5-20.7l-52.3-13.8
					l9.8-37.4l69.7,18.4l5.5-20.7l-92.3-24.4L756.5,658.3z"/>
			</g>
			<g>
				<polygon class="st13" points="895.9,571.1 901.6,549.5 831.8,531.1 808.5,524.9 802.8,546.5 793.2,583 787.5,604.6 777.8,641.3 
					772.1,662.9 795.5,669 865.2,687.5 870.9,665.9 801.2,647.5 810.9,610.8 863.1,624.6 868.8,603 816.5,589.2 826.2,552.7 				"/>
				<path d="M865.5,688l-0.4-0.1l-93.5-24.7l36.6-138.8l94,24.8l-5.9,22.4l-69.7-18.4l-9.4,35.7l52.3,13.8l-5.9,22.4l-52.3-13.8
					l-9.5,35.9l69.7,18.4L865.5,688z M772.7,662.6l92.3,24.4l5.5-20.7l-69.7-18.4l9.9-37.6l52.3,13.8l5.5-20.7L816,589.5l9.8-37.4
					l69.7,18.4l5.5-20.7l-92.3-24.4L772.7,662.6z"/>
			</g>
		</g>
		<g>
			<g>
				<path class="st14" d="M1043.1,674l29.6-4.5l-72.5-158l-36,5.4l-22.7,172.4l29.6-4.5l3.9-36.3l53.6-8.1L1043.1,674z M977.9,621.8
					l8.1-75.1l2.1-0.3l29.9,69.4L977.9,621.8z"/>
				<path class="st14" d="M941,689.9l22.8-173.3l36.6-5.5l0.1,0.3l72.7,158.5l-30.5,4.6l-14.4-33.5l-53,8l-3.9,36.3L941,689.9z
					 M964.6,517.4L942,688.9l28.7-4.3l3.9-36.3l54.3-8.2l14.4,33.5l28.7-4.3L1000,512.1L964.6,517.4z M977.4,622.3l8.2-76l2.8-0.4
					l30.2,70.2L977.4,622.3z M986.4,547.1l-8,74.2l38.9-5.9l-29.5-68.5L986.4,547.1z"/>
			</g>
			<g>
				<path class="st14" d="M1062.5,671.1l29.6-4.5l-72.5-158l-36,5.4l-22.7,172.4l29.6-4.5l3.9-36.3l53.6-8.1L1062.5,671.1z
					 M997.3,618.9l8.1-75.1l2.1-0.3l29.9,69.4L997.3,618.9z"/>
				<path class="st14" d="M960.4,687l22.8-173.3l36.6-5.5l0.1,0.3l72.7,158.5l-30.5,4.6l-14.4-33.5l-53,8l-3.9,36.3L960.4,687z
					 M984,514.5L961.4,686l28.7-4.3l3.9-36.3l54.3-8.2l14.4,33.5l28.7-4.3l-72.1-157.1L984,514.5z M996.8,619.4l8.2-76l2.8-0.4
					l30.2,70.2L996.8,619.4z M1005.8,544.2l-8,74.2l38.9-5.9l-29.5-68.5L1005.8,544.2z"/>
			</g>
		</g>
		<g>
			<g>
				<path class="st13" d="M1226.8,670.6l-29.5-62.2c4.1-2,7.7-4.5,10.8-7.6c8.8-8.7,13.2-20.9,13.2-36.6c0-14.8-4.4-26.1-13.2-34.2
					c-8.8-8-21.3-12-37.4-12H1143h-3.6h-22.2v152.6h25.8v-56.7h27.6c0.4,0,0.8,0,1.2,0l24.4,56.8H1226.8z M1143,541.9h27.6
					c7.4,0,13.1,2.1,17.2,6.4c4.1,4.3,6.1,10.3,6.1,18.1c0,7.5-2,13.3-6.1,17.4c-4.1,4.2-9.8,6.2-17.2,6.2H1143V541.9z"/>
				<path d="M1227.5,671h-31.6l-24.4-56.7l-0.1,0c-0.3,0-0.5,0-0.8,0h-27.1V671h-26.7V517.6h53.9c16.2,0,28.9,4.1,37.7,12.1
					c8.8,8.1,13.3,19.7,13.3,34.5c0,15.7-4.5,28.2-13.3,36.9c-3,3-6.6,5.5-10.5,7.5L1227.5,671z M1196.5,670.1h29.6l-29.4-61.9
					l0.4-0.2c4-2,7.6-4.5,10.7-7.5c8.7-8.6,13.1-20.8,13.1-36.3c0-14.6-4.4-25.9-13-33.8c-8.7-7.9-21.2-11.9-37.1-11.9h-53v151.7h25
					v-56.7h28c0.3,0,0.5,0,0.8,0l0.7,0l0.1,0.3L1196.5,670.1z M1170.6,590.4h-28v-49h28c7.5,0,13.3,2.2,17.5,6.5
					c4.1,4.3,6.2,10.5,6.2,18.4c0,7.5-2.1,13.5-6.2,17.7C1183.9,588.3,1178,590.4,1170.6,590.4z M1143.4,589.6h27.1
					c7.2,0,12.9-2.1,16.8-6.1c4-4,6-9.8,6-17.1c0-7.7-2-13.6-6-17.8c-4-4.2-9.6-6.3-16.8-6.3h-27.1V589.6z"/>
			</g>
			<g>
				<path class="st13" d="M1244.6,670.6l-29.5-62.2c4.1-2,7.7-4.5,10.8-7.6c8.8-8.7,13.2-20.9,13.2-36.6c0-14.8-4.4-26.1-13.2-34.2
					c-8.8-8-21.3-12-37.4-12h-27.6h-3.6H1135v152.6h25.8v-56.7h27.6c0.4,0,0.8,0,1.2,0l24.4,56.8H1244.6z M1160.9,541.9h27.6
					c7.4,0,13.1,2.1,17.2,6.4c4.1,4.3,6.1,10.3,6.1,18.1c0,7.5-2,13.3-6.1,17.4c-4.1,4.2-9.8,6.2-17.2,6.2h-27.6V541.9z"/>
				<path d="M1245.3,671h-31.6l-24.4-56.7l-0.2,0c-0.3,0-0.5,0-0.8,0h-27.1V671h-26.7V517.6h53.9c16.2,0,28.9,4.1,37.7,12.1
					c8.8,8.1,13.3,19.7,13.3,34.5c0,15.7-4.5,28.2-13.3,36.9c-3,3-6.6,5.5-10.5,7.5L1245.3,671z M1214.3,670.1h29.6l-29.4-61.9
					l0.4-0.2c4-2,7.6-4.5,10.7-7.5c8.7-8.6,13.1-20.8,13.1-36.3c0-14.6-4.4-25.9-13-33.8c-8.7-7.9-21.2-11.9-37.1-11.9h-53v151.7h25
					v-56.7h28c0.3,0,0.5,0,0.8,0l0.7,0l0.1,0.3L1214.3,670.1z M1188.4,590.4h-28v-49h28c7.5,0,13.3,2.2,17.5,6.5
					c4.1,4.3,6.2,10.5,6.2,18.4c0,7.5-2.1,13.5-6.2,17.7C1201.8,588.3,1195.9,590.4,1188.4,590.4z M1161.3,589.6h27.1
					c7.2,0,12.9-2.1,16.8-6.1c4-4,6-9.8,6-17.1c0-7.7-2-13.6-6-17.8c-4-4.2-9.6-6.3-16.8-6.3h-27.1V589.6z"/>
			</g>
		</g>
		<g>
			<g>
				<polygon class="st15" points="1376.6,503.2 1368.9,625.4 1365.5,625.1 1338.4,500.7 1326.2,500 1318.2,499.5 1300.1,498.3 
					1290.1,656.3 1316.2,658 1323.9,535.8 1327.4,536 1354.4,660.4 1366.6,661.2 1370,661.4 1392.7,662.9 1402.7,504.8 				"/>
				<path class="st15" d="M1393.1,663.3l-39.1-2.5l-0.1-0.3l-27-124.1l-2.7-0.2l-7.7,122.2l-27-1.7l0-0.4l10-158.5l39.1,2.5l0.1,0.3
					l27,124.1l2.7,0.2l7.7-122.2l27,1.7l0,0.4L1393.1,663.3z M1354.8,660l37.6,2.4l10-157.1l-25.2-1.6l-7.7,122.2l-4.2-0.3l-0.1-0.3
					l-27-124.1l-37.6-2.4l-10,157.1l25.2,1.6l7.7-122.2l4.2,0.3l0.1,0.3L1354.8,660z"/>
			</g>
			<g>
				<polygon class="st15" points="1395.1,504.3 1387.4,626.5 1384,626.3 1356.9,501.9 1344.7,501.1 1336.7,500.6 1318.6,499.5 
					1308.6,657.5 1334.7,659.2 1342.4,537 1345.9,537.2 1372.9,661.6 1385.1,662.4 1388.5,662.6 1411.2,664 1421.2,506 				"/>
				<path class="st15" d="M1411.6,664.5l-39.1-2.5l-27-124.4l-2.7-0.2l-7.7,122.2l-27-1.7l0-0.4l10-158.5l39.1,2.5l0.1,0.3l27,124.1
					l2.7,0.2l7.7-122.2l27,1.7l0,0.4L1411.6,664.5z M1373.3,661.2l37.6,2.4l10-157.1l-25.2-1.6l-7.7,122.2l-4.2-0.3l-27-124.4
					l-37.6-2.4l-10,157.1l25.2,1.6l7.7-122.2l4.2,0.3l0.1,0.3L1373.3,661.2z"/>
			</g>
		</g>
	</g>
</g>
</svg>
